<svg
        width="225"
        height="169"
        viewBox="0 0 225 169"
        fill="none"
        xmlns="http://www.w3.org/2000/svg"
    >
        <path
            d="M191.992 18.7119C183.879 18.2318 172.5 13.9589 163.187 10.5503C153.873 7.18963 150.656 9.73412 148.304 10.9344C145.903 12.1346 144.511 12.2786 141.198 11.2224C137.886 10.1662 134.237 12.0386 132.028 13.0948C130.492 13.8149 124.587 15.6873 118.778 17.5596C118.778 17.5596 128.092 19.288 134.909 17.5596C141.726 15.8313 149.648 15.3992 154.737 20.3922C159.826 25.3851 166.163 29.1299 177.157 25.3851C186.279 22.2645 199.049 26.3933 208.507 25.3851C210.284 20.9203 212.828 17.8477 215.517 17.2236C210.812 17.5116 200.922 19.288 191.992 18.7119Z"
            fill="#3F3F79"
            fill-opacity="0.14"
        />
        <path
            d="M170.867 112.33L129.867 89.4775V77.0911C129.387 76.8991 128.907 76.7071 128.427 76.515V92.5021L108.599 81.46C108.551 81.7 108.503 81.9881 108.455 82.2281C108.407 82.4682 108.407 82.7562 108.359 82.9963C107.735 90.5817 112.632 99.9916 120.553 103.4C132.412 108.537 130.923 111.322 133.228 126.253C134.764 136.239 137.837 143.056 147.151 149.249C158.913 142.624 170.339 136.191 171.923 135.326C174.516 133.934 176.004 133.502 176.724 131.438C177.156 130.141 177.3 128.605 177.156 127.021C177.444 126.973 177.732 126.733 177.78 126.445C178.501 121.98 176.676 115.931 170.867 112.33Z"
            fill="#3F3F79"
            fill-opacity="0.14"
        />
        <path
            d="M65.7264 71.2339L64.9582 71.666C65.2943 72.3381 65.6304 73.0102 66.0144 73.7304L37.1609 90.5816C36.8248 89.8615 36.4887 89.1894 36.1527 88.5172L32.552 90.6296L36.6328 92.8861L69.8552 73.4903L65.7264 71.2339Z"
            fill="#E1DFE6"
        />
        <path
            d="M40.6175 62.0642C40.4735 61.8242 40.1854 61.7762 39.9454 61.8722L27.9911 68.8815C27.751 69.0255 27.703 69.3136 27.799 69.5536C27.8951 69.6977 28.0391 69.7937 28.2311 69.7937C28.3272 69.7937 28.3752 69.7937 28.4712 69.7457L40.4255 62.7363C40.6655 62.5923 40.7616 62.3043 40.6175 62.0642Z"
            fill="#E1DFE6"
        />
        <path
            d="M40.0902 67.2494C39.9462 67.0093 39.6581 66.9613 39.4181 67.0574L31.5446 71.6182C31.3045 71.7623 31.2565 72.0503 31.3525 72.2904C31.4485 72.4344 31.5926 72.5304 31.7846 72.5304C31.8806 72.5304 31.9286 72.5304 32.0246 72.4824L39.8982 67.9215C40.1382 67.7775 40.2342 67.4894 40.0902 67.2494Z"
            fill="#E1DFE6"
        />
        <path
            d="M47.7226 63.2644C47.8187 63.2644 47.8667 63.2644 47.9627 63.2164L51.5154 61.152C51.7554 61.008 51.8034 60.7199 51.7074 60.4799C51.5634 60.2398 51.2753 60.1918 51.0353 60.2878L47.4826 62.3522C47.2426 62.4962 47.1945 62.7843 47.2906 63.0243C47.3866 63.2164 47.5786 63.2644 47.7226 63.2644Z"
            fill="#E1DFE6"
        />
        <path
            d="M32.7921 74.2585C32.8881 74.4025 33.0321 74.4985 33.2241 74.4985C33.3202 74.4985 33.3682 74.4985 33.4642 74.4505L43.2101 68.7854C43.4501 68.6414 43.4981 68.3533 43.4021 68.1133C43.2581 67.8732 42.97 67.8252 42.73 67.9212L32.9841 73.5863C32.744 73.7304 32.648 74.0184 32.7921 74.2585Z"
            fill="#E1DFE6"
        />
        <path
            d="M48.7309 64.9449C48.8269 65.0889 48.9709 65.1849 49.163 65.1849C49.259 65.1849 49.307 65.1849 49.403 65.1369L52.9077 63.0725C53.1477 62.9285 53.1957 62.6404 53.0997 62.4004C52.9557 62.1603 52.6676 62.1123 52.4276 62.2084L48.9229 64.2727C48.6829 64.4168 48.6349 64.7048 48.7309 64.9449Z"
            fill="#E1DFE6"
        />
        <path
            d="M38.7933 72.8661L34.3285 75.4586C34.0884 75.6026 34.0404 75.8906 34.1364 76.1307C34.2324 76.2747 34.3765 76.3707 34.5685 76.3707C34.6645 76.3707 34.7125 76.3707 34.8085 76.3227L39.2734 73.7302C39.5135 73.5862 39.5615 73.2981 39.4654 73.0581C39.3214 72.8181 39.0334 72.77 38.7933 72.8661Z"
            fill="#E1DFE6"
        />
        <path
            d="M50.316 66.7209C50.412 66.865 50.556 66.961 50.7481 66.961C50.8441 66.961 50.8921 66.961 50.9881 66.913L54.3488 64.9446C54.5888 64.8006 54.6368 64.5125 54.5408 64.2725C54.3968 64.0324 54.1087 63.9844 53.8687 64.0804L50.508 66.0488C50.22 66.2408 50.1719 66.5289 50.316 66.7209Z"
            fill="#E1DFE6"
        />
        <path
            d="M81.5212 77.8112L47.4826 97.735C47.2426 97.8791 47.1945 98.1671 47.2906 98.4072C47.3866 98.5512 47.5306 98.6472 47.7226 98.6472C47.8187 98.6472 47.8667 98.6472 47.9627 98.5992L82.0013 78.7233C82.2413 78.5793 82.2893 78.2913 82.1933 78.0512C82.0493 77.7632 81.7612 77.7152 81.5212 77.8112Z"
            fill="#E1DFE6"
        />
        <path
            d="M62.846 92.7423L51.1317 99.6076C50.8917 99.7517 50.8437 100.04 50.9397 100.28C51.0357 100.424 51.1797 100.52 51.3718 100.52C51.4678 100.52 51.5158 100.52 51.6118 100.472L63.3261 93.6545C63.5661 93.5105 63.6141 93.2224 63.5181 92.9824C63.3261 92.6943 63.038 92.6463 62.846 92.7423Z"
            fill="#E1DFE6"
        />
        <path
            d="M166.786 130.238C166.306 129.949 165.73 129.997 165.249 130.238L130.923 150.305C130.443 150.593 130.155 151.122 130.155 151.65C130.155 152.226 130.443 152.706 130.971 152.994C131.211 153.138 131.451 153.186 131.739 153.186C132.027 153.186 132.267 153.138 132.507 152.994L166.834 132.926C167.314 132.638 167.602 132.11 167.602 131.582C167.602 131.006 167.314 130.478 166.786 130.238ZM166.354 132.11L132.027 152.178C131.835 152.274 131.595 152.274 131.451 152.178C131.163 152.034 131.163 151.746 131.163 151.65C131.163 151.554 131.211 151.266 131.451 151.122L165.778 131.054C165.874 131.006 165.97 130.958 166.066 130.958C166.162 130.958 166.258 131.006 166.354 131.054C166.642 131.198 166.642 131.486 166.642 131.582C166.642 131.678 166.594 131.918 166.354 132.11Z"
            fill="#E1DFE6"
        />
        <path
            d="M102.838 100.52L98.1329 97.8791C97.2688 97.399 96.2126 97.399 95.3484 97.9271L83.7782 104.648C83.106 105.032 83.106 106.041 83.7782 106.425L88.291 108.969C88.9152 109.305 89.6833 109.305 90.3074 108.969L102.79 101.672C103.27 101.384 103.27 100.76 102.838 100.52Z"
            fill="#E1DFE6"
        />
        <path
            d="M170.724 116.411L129.58 93.4623V86.693C129.58 86.501 129.484 86.3569 129.34 86.2609L65.7753 50.8301C65.6313 50.734 65.4393 50.734 65.2952 50.8301C65.1512 50.9261 65.0552 51.0701 65.0552 51.2621V57.6954C63.5189 57.2633 61.8866 57.4073 60.4463 58.2235C60.2063 58.3675 60.1582 58.6556 60.2543 58.8956C60.3983 59.1357 60.6863 59.2317 60.9264 59.0877C62.4627 58.2235 64.3351 58.2235 65.8714 59.0877L66.1594 59.2317L170.196 117.227C175.957 120.828 177.541 127.021 176.149 131.246C175.669 132.686 174.804 133.214 173.268 133.982C174.132 131.918 174.324 129.661 173.7 127.357C172.692 123.516 169.859 120.396 167.651 119.147L66.6875 62.8804C65.2472 62.0642 63.5189 62.0642 62.0306 62.8804L60.9264 63.5045C56.4615 56.4952 51.6606 51.8863 43.595 47.8535C41.9147 47.0373 40.8585 46.9413 39.8023 47.5174C39.1782 47.8535 39.0822 48.3816 38.9862 48.7176C38.9381 49.0057 38.8901 49.1497 38.6501 49.2458C38.41 49.3898 38.218 49.3418 37.8819 49.2938C37.4979 49.1977 37.0178 49.0537 36.3937 49.3898C35.7695 49.7258 35.6255 50.2059 35.5295 50.59C35.4335 50.9261 35.3855 51.0701 35.0974 51.2141C34.8574 51.3582 34.6653 51.3102 34.3293 51.2141C33.9452 51.1181 33.4651 50.9741 32.841 51.3102C32.2168 51.6462 32.0728 52.1263 31.9768 52.5104C31.8808 52.8465 31.8328 52.9905 31.5447 53.1345C31.3047 53.2785 31.1126 53.2305 30.7766 53.1825C30.3925 53.0865 29.9124 52.9425 29.2883 53.2785C28.6642 53.6146 28.5201 54.0947 28.4241 54.4788C28.3281 54.8148 28.2801 54.9589 27.992 55.1029C27.752 55.2469 27.5599 55.1989 27.2239 55.1509C26.8398 55.0549 26.3597 54.9108 25.7356 55.2469C25.1115 55.583 24.9675 56.0631 24.8714 56.4471C24.7754 56.7352 24.7274 56.9272 24.4393 57.0713C24.1993 57.2153 24.0073 57.1673 23.6712 57.0713C23.2871 56.9752 22.807 56.8312 22.1829 57.1673C21.5588 57.5034 21.4148 57.9834 21.3187 58.3675C21.2227 58.6556 21.1747 58.8476 20.8867 58.9916C20.6466 59.1357 20.4546 59.0877 20.1185 58.9916C19.7344 58.8956 19.2543 58.7516 18.6302 59.0877C18.0061 59.4237 17.8621 59.9038 17.7661 60.2879C17.67 60.5759 17.622 60.768 17.334 60.912C17.0939 61.056 16.9019 61.008 16.5658 60.912C16.1818 60.816 15.7017 60.672 15.1255 61.008C14.5014 61.3441 14.3574 61.8242 14.2614 62.2083C14.1654 62.5443 14.1174 62.6884 13.8293 62.8324C13.5412 62.9764 13.3012 63.0244 13.0131 63.0244C12.5811 63.0724 12.0049 63.1204 11.7649 63.8886C11.7169 64.0806 11.7649 64.3207 11.9569 64.4167C18.3422 68.8335 23.1911 72.6263 27.2239 76.8511C27.1279 76.8511 27.0799 76.8511 26.9838 76.8991L5.90777 88.8054L5.85976 88.8534C4.89957 89.3815 4.13142 90.1977 3.5073 91.2539L3.31526 91.3499C2.21105 92.07 1.05883 93.2222 0.482717 94.5185C-0.669506 97.159 0.386696 100.76 2.11503 103.64V103.688C1.58693 108.681 5.23564 112.714 7.68411 114.106L102.935 167.013C105.863 168.645 109.224 169.173 111.144 166.628C113.064 166.965 115.177 166.532 116.905 165.62C117.001 165.572 117.097 165.524 117.193 165.428C118.201 164.852 119.402 164.18 120.794 163.412C120.794 163.364 120.794 163.316 120.842 163.268H120.89C121.034 163.268 121.226 163.172 121.322 163.028C124.443 157.795 122.522 150.785 117.097 147.377C113.833 145.36 30.3445 98.8393 13.6853 89.5255L13.1572 89.2375C11.8129 88.4693 10.3726 88.0853 9.07638 88.0372L27.4639 77.6673C27.608 77.5712 27.704 77.4272 27.704 77.2832C28.5681 78.2434 29.4323 79.2516 30.2485 80.2598L19.5904 86.1649C18.7262 86.645 18.2462 87.5092 18.2462 88.4693C18.2462 89.4295 18.7743 90.2937 19.6384 90.7738L119.018 145.36C121.946 146.993 124.299 149.969 125.211 153.234C125.931 155.874 125.643 158.371 124.347 160.531C124.203 160.771 124.299 161.059 124.539 161.203C124.635 161.251 124.683 161.251 124.779 161.251C124.923 161.251 125.115 161.155 125.211 161.011C126.651 158.611 126.939 155.826 126.171 152.946C125.211 149.441 122.666 146.224 119.498 144.496L34.2812 97.6871L79.7941 71.09L167.123 119.771C169.187 120.924 171.78 123.756 172.74 127.357C173.412 129.901 173.076 132.35 171.78 134.462C171.684 134.51 171.636 134.558 171.54 134.558C171.3 134.702 171.204 134.99 171.348 135.23C171.444 135.374 171.588 135.47 171.78 135.47C171.876 135.47 171.924 135.47 172.02 135.422C172.452 135.182 172.836 134.99 173.22 134.798C175.14 133.838 176.389 133.166 177.013 131.246C178.645 126.925 176.965 120.251 170.724 116.411ZM66.0634 58.0315V52.0783L128.667 86.981V92.8862L66.6395 58.3675L66.3515 58.2235L66.0634 58.0315ZM8.21221 97.6871C8.83634 97.3991 9.55647 97.255 10.3726 97.255C11.9089 97.255 13.6853 97.7831 15.5096 98.7913L108.072 150.065C111.096 151.746 116.329 157.507 115.081 162.068C114.601 163.844 113.737 164.996 112.536 165.476C110.76 166.244 108.648 165.524 107.207 164.852C107.063 164.756 106.871 164.708 106.727 164.612L11.4768 111.706C9.2204 110.458 6.00378 107.001 5.85976 102.584C5.85976 102.056 5.90777 101.528 6.00378 101C6.24383 99.3674 7.01198 98.2632 8.21221 97.6871ZM13.4452 90.6298C30.1525 99.9436 113.593 146.417 116.857 148.481C121.85 151.602 123.627 158.035 120.794 162.788C120.698 162.932 120.698 163.076 120.794 163.22C120.794 163.22 120.794 163.22 120.746 163.22C119.114 164.084 117.097 164.516 115.273 164.276C115.609 163.7 115.849 163.076 116.089 162.308C117.145 158.419 114.217 154.002 111.288 151.265L113.641 149.825C113.881 149.681 113.929 149.393 113.785 149.153C113.641 148.913 113.353 148.865 113.112 149.009L110.52 150.641C109.848 150.065 109.176 149.633 108.6 149.297L15.9897 97.9272C14.1654 96.919 12.293 96.3429 10.6607 96.2948L14.1654 94.1344C14.4054 93.9904 14.4534 93.7023 14.3094 93.4623C14.1654 93.2223 13.8773 93.1742 13.6373 93.3183L8.30823 96.6309C8.11619 96.6789 7.92415 96.7749 7.78013 96.823C6.53189 97.4471 5.61971 98.5513 5.18763 100.04C3.9874 97.6871 3.36327 94.9986 3.93938 92.8382C4.0354 92.7902 4.08342 92.6941 4.13143 92.5981C4.80356 90.9658 5.85976 89.9096 7.25203 89.4775C8.83634 88.9494 10.9007 89.2375 12.8211 90.3417L13.4452 90.6298ZM13.2052 64.0806C13.2532 64.0806 13.3012 64.0806 13.3012 64.0806C13.5892 64.0326 14.0213 64.0326 14.5014 63.7446C15.1255 63.4085 15.2696 62.9284 15.3656 62.5443C15.4616 62.2563 15.5096 62.0642 15.7977 61.9202C16.0377 61.7762 16.2298 61.8242 16.5658 61.9202C16.9499 62.0162 17.43 62.1602 18.0541 61.8242C18.6782 61.4881 18.8223 61.008 18.9183 60.624C19.0143 60.3359 19.0623 60.1439 19.3504 59.9998C19.5904 59.8558 19.7824 59.9038 20.1185 59.9998C20.5026 60.0958 20.9827 60.2399 21.5588 59.9038C22.1829 59.5677 22.3269 59.0877 22.423 58.7036C22.519 58.4155 22.567 58.2235 22.855 58.0795C23.0951 57.9354 23.2871 57.9834 23.6232 58.0795C24.0073 58.1755 24.4874 58.3195 25.1115 57.9834C25.7356 57.6474 25.8796 57.1673 25.9756 56.7832C26.0717 56.4952 26.1197 56.3031 26.4077 56.1591C26.6478 56.0151 26.8398 56.0631 27.1759 56.1111C27.56 56.2071 28.04 56.3511 28.6162 56.0151C29.2403 55.679 29.3843 55.1989 29.4803 54.8148C29.5763 54.5268 29.6244 54.3347 29.9124 54.1907C30.1525 54.0467 30.3445 54.0947 30.6806 54.1427C31.0646 54.2387 31.5447 54.3827 32.1208 54.0467C32.7449 53.7106 32.889 53.2305 32.985 52.8464C33.081 52.5104 33.129 52.3664 33.4171 52.2223C33.6571 52.0783 33.8492 52.1263 34.1852 52.2223C34.5693 52.3183 35.0494 52.4624 35.6735 52.1263C36.2976 51.7902 36.4417 51.3102 36.5377 50.9261C36.6337 50.59 36.6817 50.446 36.9698 50.302C37.2578 50.1579 37.4499 50.2059 37.7379 50.254C38.122 50.35 38.6021 50.494 39.1782 50.1579C39.8023 49.8219 39.9463 49.2938 39.9944 48.9577C40.0424 48.6696 40.0904 48.5256 40.3304 48.4296C40.9545 48.0935 41.6747 47.9975 43.211 48.7657C51.1805 52.7504 55.9334 57.3113 60.3503 64.3687V64.4167C60.3503 64.4647 60.3983 64.4647 60.3983 64.4647C62.0786 67.1052 63.6629 70.1298 65.4393 73.5385L37.4499 89.9096C31.7848 78.4834 25.0635 72.3862 13.2052 64.0806ZM33.4171 97.3991L20.2625 90.1497C19.7344 89.8616 19.3984 89.2855 19.3984 88.6614C19.3984 88.0373 19.7344 87.5091 20.2625 87.1731L31.0166 81.1719C33.129 83.9565 35.0014 87.0771 36.7297 90.7258C36.7777 90.8698 36.8738 90.9178 37.0178 90.9658C37.0658 90.9658 37.1138 90.9658 37.1618 90.9658C37.2578 90.9658 37.3058 90.9658 37.4018 90.9178L66.2554 74.0666C66.4955 73.9225 66.5435 73.6825 66.4475 73.4424C64.7191 69.9858 63.0868 66.9132 61.4065 64.2727L62.4627 63.6966C63.6149 63.0724 65.0072 63.0724 66.1594 63.6966L78.9299 70.8019L33.4171 97.3991Z"
            fill="#ABABB6"
        />
        <path
            d="M220.51 18.5678C219.31 17.2716 217.965 16.6475 216.525 16.6475C211.244 16.6475 206.443 25.3851 205.675 36.4753C205.147 44.1568 206.731 51.1661 209.756 54.4308C210.956 55.727 212.3 56.3511 213.74 56.3511C219.021 56.3511 223.822 47.6134 224.591 36.5233C225.167 28.8898 223.534 21.8325 220.51 18.5678ZM223.63 36.4753C222.862 46.9413 218.445 55.439 213.692 55.439C212.492 55.439 211.388 54.9109 210.38 53.8066C207.499 50.734 206.011 43.9647 206.539 36.5713C207.307 26.1053 211.724 17.6076 216.477 17.6076C217.677 17.6076 218.781 18.1357 219.79 19.24C222.67 22.3126 224.158 29.0819 223.63 36.4753Z"
            fill="#ABABB6"
        />
        <path
            d="M116.281 60.672C119.354 60.528 121.226 60.528 121.946 60.624C122.954 60.816 122.954 61.2001 122.906 62.6404V62.7844C122.906 63.2645 122.858 65.857 123.579 68.4975C123.627 68.6896 123.819 68.8336 124.059 68.8336C124.107 68.8336 124.155 68.8336 124.203 68.8336C124.443 68.7856 124.587 68.4975 124.539 68.2575C123.867 65.761 123.915 63.2645 123.915 62.8324V62.6884C123.963 61.3441 124.011 59.9999 122.138 59.6638C121.322 59.5198 119.45 59.5198 116.233 59.7118C115.945 59.7118 115.753 59.9519 115.801 60.1919C115.801 60.48 116.041 60.672 116.281 60.672Z"
            fill="#ABABB6"
        />
        <path
            d="M32.2166 60.4797C32.0726 60.2397 31.7846 60.1917 31.5445 60.2877L24.3431 64.4645C24.1031 64.6085 24.0551 64.8966 24.1511 65.1366C24.2471 65.2807 24.3911 65.3767 24.5832 65.3767C24.6792 65.3767 24.7272 65.3767 24.8232 65.3287L32.0246 61.1519C32.3127 61.0078 32.3607 60.7198 32.2166 60.4797Z"
            fill="#ABABB6"
        />
        <path
            d="M46.7642 55.9191C46.6202 55.679 46.3321 55.631 46.0921 55.727L26.6003 67.1052C26.3603 67.2493 26.3123 67.5373 26.4083 67.7774C26.5043 67.9214 26.6483 68.0174 26.8404 68.0174C26.9364 68.0174 26.9844 68.0174 27.0804 67.9694L46.5722 56.5912C46.8122 56.4472 46.8602 56.1591 46.7642 55.9191Z"
            fill="#ABABB6"
        />
        <path
            d="M101.831 88.1333L96.5017 91.2539C96.2616 91.3979 96.2136 91.686 96.3096 91.926C96.4057 92.07 96.5497 92.1661 96.7417 92.1661C96.8377 92.1661 96.8858 92.1661 96.9818 92.118L102.311 88.9974C102.551 88.8534 102.599 88.5654 102.503 88.3253C102.359 88.0853 102.071 88.0373 101.831 88.1333Z"
            fill="#ABABB6"
        />
        <path
            d="M73.8413 105.033C73.6973 104.793 73.4092 104.745 73.1692 104.841L65.7757 109.162C65.5357 109.306 65.4877 109.594 65.5837 109.834C65.6797 109.978 65.8237 110.074 66.0158 110.074C66.1118 110.074 66.1598 110.074 66.2558 110.026L73.6492 105.705C73.8893 105.561 73.9853 105.273 73.8413 105.033Z"
            fill="#ABABB6"
        />
        <path
            d="M67.696 114.346C69.9045 115.595 72.4009 116.171 74.8974 116.171C77.4899 116.171 80.0824 115.499 82.3869 114.154L86.5157 111.754C86.9478 111.514 87.1878 111.082 87.1878 110.602C87.1878 110.122 86.9478 109.689 86.5157 109.449L82.1468 107.001C81.0906 106.425 79.7464 106.425 78.6902 107.049L67.696 113.482C67.552 113.578 67.456 113.722 67.456 113.914C67.456 114.058 67.552 114.25 67.696 114.346ZM79.1703 107.913C79.9384 107.481 80.8986 107.481 81.6667 107.865L86.0356 110.314C86.1796 110.41 86.2276 110.554 86.2276 110.602C86.2276 110.65 86.2276 110.842 86.0356 110.89L81.9068 113.29C77.97 115.595 73.0731 115.787 68.9443 113.818L79.1703 107.913Z"
            fill="#ABABB6"
        />
        <path
            d="M108.84 89.7656C108.696 89.6696 108.504 89.6696 108.36 89.7656L99.8143 94.7586C99.3342 95.0466 99.0461 95.5267 99.0461 96.0548C99.0461 96.5829 99.3342 97.063 99.8143 97.3511L104.039 99.7035C104.519 99.9436 105.047 100.088 105.575 100.088C106.103 100.088 106.68 99.9436 107.16 99.6555L108.888 98.6473C110.52 97.6871 111.433 96.0068 111.433 94.1825C111.433 92.3101 110.472 90.6298 108.84 89.7656ZM108.456 97.8312L106.728 98.8394C106.055 99.2234 105.239 99.2234 104.567 98.8394L100.342 96.4869C100.102 96.3429 100.054 96.1028 100.054 96.0068C100.054 95.9108 100.054 95.6708 100.342 95.5267L108.648 90.6778C109.848 91.4459 110.568 92.6942 110.568 94.1345C110.52 95.7188 109.752 97.063 108.456 97.8312Z"
            fill="#ABABB6"
        />
        <path
            d="M125.21 102.008L118.585 98.311C117.769 97.8789 116.761 97.8789 115.945 98.359L108.455 102.728C108.071 102.968 107.831 103.352 107.831 103.832C107.831 104.264 108.071 104.696 108.455 104.888L114.792 108.441C115.272 108.729 115.801 108.825 116.329 108.825C116.905 108.825 117.433 108.681 117.913 108.393L125.162 104.168C125.546 103.928 125.786 103.544 125.786 103.064C125.834 102.632 125.594 102.2 125.21 102.008ZM124.73 103.352L117.481 107.577C116.809 107.961 115.945 107.961 115.272 107.577L108.935 104.024C108.791 103.928 108.791 103.832 108.791 103.784C108.791 103.736 108.791 103.592 108.935 103.544L116.425 99.1751C116.665 99.0311 117.001 98.9351 117.289 98.9351C117.577 98.9351 117.865 98.9831 118.105 99.1271L124.73 102.824C124.874 102.92 124.874 103.016 124.874 103.064C124.874 103.112 124.874 103.256 124.73 103.352Z"
            fill="#ABABB6"
        />
        <path
            d="M136.157 108.153L129.531 104.456C128.715 104.024 127.707 104.024 126.891 104.504L119.401 108.873C119.017 109.113 118.777 109.497 118.777 109.977C118.777 110.409 119.017 110.841 119.401 111.034L125.739 114.586C126.219 114.874 126.747 114.97 127.275 114.97C127.851 114.97 128.379 114.826 128.859 114.538L136.109 110.313C136.493 110.073 136.733 109.689 136.733 109.209C136.829 108.777 136.589 108.393 136.157 108.153ZM135.725 109.497L128.475 113.722C127.803 114.106 126.939 114.106 126.267 113.722L119.93 110.169C119.786 110.073 119.786 109.977 119.786 109.929C119.786 109.881 119.786 109.737 119.93 109.689L127.419 105.32C127.659 105.176 127.995 105.08 128.283 105.08C128.571 105.08 128.859 105.128 129.099 105.272L135.725 108.969C135.869 109.065 135.869 109.161 135.869 109.209C135.869 109.305 135.821 109.401 135.725 109.497Z"
            fill="#ABABB6"
        />
        <path
            d="M107.88 117.755L114.217 121.308C114.697 121.596 115.225 121.692 115.753 121.692C116.329 121.692 116.857 121.548 117.338 121.26L124.587 117.035C124.971 116.795 125.211 116.411 125.211 115.931C125.211 115.499 124.971 115.066 124.587 114.874L117.962 111.178C117.145 110.746 116.137 110.746 115.321 111.226L107.832 115.595C107.448 115.835 107.208 116.219 107.208 116.699C107.256 117.179 107.496 117.563 107.88 117.755ZM108.36 116.459L115.849 112.09C116.089 111.946 116.425 111.85 116.713 111.85C117.001 111.85 117.289 111.898 117.53 112.042L124.155 115.739C124.299 115.835 124.299 115.931 124.299 115.979C124.299 116.027 124.299 116.171 124.155 116.219L116.905 120.443C116.233 120.828 115.369 120.828 114.697 120.443L108.36 116.891C108.216 116.795 108.216 116.699 108.216 116.651C108.216 116.651 108.216 116.507 108.36 116.459Z"
            fill="#ABABB6"
        />
        <path
            d="M114.265 109.833C114.265 109.401 114.025 108.969 113.641 108.777L107.015 105.081C106.199 104.648 105.191 104.648 104.375 105.129L96.8853 109.497C96.5012 109.737 96.2612 110.121 96.2612 110.602C96.2612 111.034 96.5012 111.466 96.8853 111.658L103.223 115.21C103.703 115.499 104.231 115.595 104.759 115.595C105.335 115.595 105.863 115.451 106.343 115.162L113.593 110.938C114.073 110.698 114.313 110.314 114.265 109.833ZM113.208 110.121L105.959 114.346C105.287 114.73 104.423 114.73 103.751 114.346L97.4134 110.794C97.2694 110.698 97.2694 110.602 97.2694 110.554C97.2694 110.506 97.2694 110.362 97.4134 110.314L104.903 105.945C105.143 105.801 105.479 105.705 105.767 105.705C106.055 105.705 106.343 105.753 106.583 105.897L113.208 109.593C113.352 109.689 113.352 109.785 113.352 109.833C113.352 109.929 113.304 110.025 113.208 110.121Z"
            fill="#ABABB6"
        />
        <path
            d="M85.3624 118.379L91.6997 121.932C92.1798 122.22 92.7079 122.316 93.236 122.316C93.8121 122.316 94.3402 122.172 94.8203 121.884L102.07 117.659C102.454 117.419 102.694 117.035 102.694 116.555C102.694 116.122 102.454 115.69 102.07 115.498L95.4444 111.802C94.6282 111.369 93.62 111.369 92.8039 111.85L85.3145 116.218C84.9304 116.458 84.6903 116.843 84.6903 117.323C84.7383 117.755 84.9784 118.187 85.3624 118.379ZM85.8425 117.083L93.332 112.714C93.572 112.57 93.9081 112.474 94.1962 112.474C94.4842 112.474 94.7723 112.522 95.0123 112.666L101.638 116.362C101.782 116.458 101.782 116.554 101.782 116.603C101.782 116.651 101.782 116.795 101.638 116.843L94.3882 121.067C93.7161 121.451 92.8519 121.451 92.1798 121.067L85.8425 117.515C85.6985 117.419 85.6985 117.323 85.6985 117.275C85.6985 117.275 85.6985 117.131 85.8425 117.083Z"
            fill="#ABABB6"
        />
        <path
            d="M96.3572 124.524L102.694 128.077C103.175 128.365 103.703 128.461 104.231 128.461C104.807 128.461 105.335 128.317 105.815 128.029L113.064 123.804C113.448 123.564 113.689 123.18 113.689 122.7C113.689 122.268 113.448 121.836 113.064 121.644L106.439 117.947C105.623 117.515 104.615 117.515 103.799 117.995L96.3092 122.364C95.9251 122.604 95.6851 122.988 95.6851 123.468C95.7331 123.9 95.9731 124.284 96.3572 124.524ZM96.8373 123.18L104.327 118.811C104.567 118.667 104.903 118.571 105.191 118.571C105.479 118.571 105.767 118.619 106.007 118.763L112.632 122.46C112.776 122.556 112.776 122.652 112.776 122.7C112.776 122.748 112.776 122.892 112.632 122.94L105.383 127.165C104.711 127.549 103.847 127.549 103.175 127.165L96.8373 123.612C96.6933 123.516 96.6932 123.42 96.6932 123.372C96.6932 123.372 96.6933 123.276 96.8373 123.18Z"
            fill="#ABABB6"
        />
        <path
            d="M138.318 121.116C138.894 121.116 139.422 120.972 139.902 120.683L147.151 116.459C147.536 116.219 147.776 115.835 147.776 115.354C147.776 114.922 147.536 114.49 147.151 114.298L140.526 110.602C139.71 110.169 138.702 110.169 137.886 110.65L130.396 115.018C130.012 115.258 129.772 115.642 129.772 116.123C129.772 116.555 130.012 116.987 130.396 117.179L136.733 120.731C137.262 120.972 137.79 121.116 138.318 121.116ZM130.732 116.075C130.732 116.027 130.732 115.883 130.876 115.835L138.366 111.466C138.606 111.322 138.942 111.226 139.23 111.226C139.518 111.226 139.806 111.274 140.046 111.418L146.671 115.114C146.815 115.21 146.815 115.306 146.815 115.354C146.815 115.402 146.815 115.546 146.671 115.594L139.422 119.819C138.75 120.203 137.886 120.203 137.214 119.819L130.876 116.267C130.732 116.267 130.732 116.123 130.732 116.075Z"
            fill="#ABABB6"
        />
        <path
            d="M118.874 123.9L125.211 127.453C125.691 127.741 126.219 127.837 126.747 127.837C127.323 127.837 127.851 127.693 128.332 127.405L135.629 123.18C136.013 122.94 136.253 122.556 136.253 122.076C136.253 121.644 136.013 121.212 135.629 121.02L129.004 117.323C128.188 116.891 127.179 116.891 126.363 117.371L118.874 121.74C118.49 121.98 118.25 122.364 118.25 122.844C118.25 123.276 118.49 123.66 118.874 123.9ZM119.354 122.556L126.843 118.187C127.083 118.043 127.419 117.947 127.707 117.947C127.995 117.947 128.284 117.995 128.524 118.139L135.149 121.836C135.293 121.932 135.293 122.028 135.293 122.076C135.293 122.124 135.293 122.268 135.149 122.316L127.899 126.541C127.227 126.925 126.363 126.925 125.691 126.541L119.354 122.988C119.21 122.892 119.21 122.796 119.21 122.748C119.21 122.748 119.21 122.652 119.354 122.556Z"
            fill="#ABABB6"
        />
        <path
            d="M107.351 130.622L113.688 134.174C114.168 134.462 114.696 134.558 115.224 134.558C115.8 134.558 116.329 134.414 116.809 134.126L124.106 129.901C124.49 129.661 124.73 129.277 124.73 128.797C124.73 128.365 124.49 127.933 124.106 127.741L117.481 124.044C116.665 123.612 115.656 123.612 114.84 124.092L107.303 128.461C106.919 128.701 106.679 129.085 106.679 129.565C106.727 129.997 106.967 130.429 107.351 130.622ZM107.783 129.325L115.272 124.956C115.512 124.812 115.848 124.716 116.137 124.716C116.425 124.716 116.713 124.764 116.953 124.908L123.578 128.605C123.722 128.701 123.722 128.797 123.722 128.845C123.722 128.893 123.722 129.037 123.578 129.085L116.329 133.31C115.656 133.694 114.792 133.694 114.12 133.31L107.783 129.757C107.639 129.661 107.639 129.565 107.639 129.517C107.687 129.517 107.687 129.373 107.783 129.325Z"
            fill="#ABABB6"
        />
        <path
            d="M127.563 134.078L125.883 133.118C125.019 132.638 123.915 132.638 123.051 133.166L118.826 135.662C118.49 135.854 118.25 136.239 118.25 136.623C118.25 137.007 118.49 137.391 118.826 137.583L120.506 138.543C120.938 138.783 121.418 138.879 121.898 138.879C122.378 138.879 122.906 138.735 123.339 138.495L127.611 135.999C127.947 135.806 128.188 135.422 128.188 135.038C128.139 134.606 127.947 134.27 127.563 134.078ZM127.131 135.182L122.858 137.679C122.282 138.015 121.562 138.015 120.986 137.679L119.306 136.719C119.258 136.671 119.21 136.623 119.21 136.575C119.21 136.527 119.21 136.479 119.306 136.431L123.579 133.934C123.867 133.742 124.203 133.694 124.539 133.694C124.875 133.694 125.163 133.79 125.451 133.934L127.131 134.894C127.179 134.942 127.227 134.99 127.227 135.038C127.179 135.086 127.179 135.134 127.131 135.182Z"
            fill="#ABABB6"
        />
        <path
            d="M136.253 128.989L134.573 128.029C133.709 127.549 132.605 127.549 131.74 128.077L127.468 130.573C127.132 130.765 126.891 131.15 126.891 131.534C126.891 131.918 127.132 132.302 127.468 132.494L129.148 133.454C129.58 133.694 130.06 133.79 130.54 133.79C131.02 133.79 131.548 133.646 131.98 133.406L136.253 130.91C136.589 130.717 136.829 130.333 136.829 129.949C136.829 129.565 136.589 129.181 136.253 128.989ZM135.773 130.093L131.5 132.59C130.924 132.926 130.204 132.926 129.628 132.59L127.948 131.63C127.9 131.582 127.852 131.534 127.852 131.486C127.852 131.438 127.852 131.39 127.948 131.342L132.22 128.845C132.509 128.653 132.845 128.605 133.181 128.605C133.517 128.605 133.805 128.701 134.093 128.845L135.773 129.805C135.821 129.853 135.869 129.901 135.869 129.949C135.869 129.997 135.869 130.045 135.773 130.093Z"
            fill="#ABABB6"
        />
        <path
            d="M144.895 123.948L143.215 122.988C142.351 122.508 141.246 122.508 140.382 123.036L136.109 125.532C135.773 125.724 135.533 126.109 135.533 126.493C135.533 126.877 135.773 127.261 136.109 127.453L137.79 128.413C138.222 128.653 138.702 128.749 139.182 128.749C139.662 128.749 140.19 128.605 140.622 128.365L144.895 125.869C145.231 125.676 145.471 125.292 145.471 124.908C145.471 124.476 145.279 124.14 144.895 123.948ZM144.463 125.052L140.19 127.549C139.614 127.885 138.894 127.885 138.318 127.549L136.638 126.589C136.59 126.541 136.542 126.493 136.542 126.445C136.542 126.397 136.542 126.349 136.638 126.301L140.91 123.804C141.198 123.612 141.534 123.564 141.871 123.564C142.207 123.564 142.495 123.66 142.783 123.804L144.463 124.764C144.511 124.812 144.559 124.86 144.559 124.908C144.511 124.956 144.511 125.004 144.463 125.052Z"
            fill="#ABABB6"
        />
        <path
            d="M153.584 118.859L151.904 117.899C151.04 117.419 149.936 117.419 149.071 117.947L144.799 120.443C144.463 120.635 144.223 121.02 144.223 121.404C144.223 121.788 144.463 122.172 144.799 122.364L146.479 123.324C146.911 123.564 147.391 123.66 147.871 123.66C148.351 123.66 148.879 123.516 149.311 123.276L153.584 120.78C153.92 120.587 154.16 120.203 154.16 119.819C154.16 119.435 153.92 119.051 153.584 118.859ZM153.104 119.963L148.831 122.46C148.255 122.796 147.535 122.796 146.959 122.46L145.279 121.5C145.231 121.452 145.183 121.404 145.183 121.356C145.183 121.308 145.183 121.26 145.279 121.212L149.552 118.715C149.84 118.523 150.176 118.475 150.512 118.475C150.848 118.475 151.136 118.571 151.424 118.715L153.104 119.675C153.152 119.723 153.2 119.771 153.2 119.819C153.2 119.867 153.2 119.963 153.104 119.963Z"
            fill="#ABABB6"
        />
        <path
            d="M46.5722 85.1086C45.18 81.8439 43.6437 79.4915 42.7315 78.1472L40.235 79.6355C42.4435 82.468 43.4997 84.9165 44.0278 86.5968L46.5722 85.1086Z"
            fill="#27BDA0"
        />
        <path
            d="M52.5731 81.604C51.2289 78.3874 49.7406 75.9869 48.7324 74.5466L43.9315 77.3792C44.8917 78.7714 46.3799 81.1239 47.7722 84.3405L52.5731 81.604Z"
            fill="#27BDA0"
        />
        <path
            d="M54.5897 80.4038C53.2454 77.1872 51.8051 74.7867 50.7969 73.2985L49.5487 74.0186C50.5569 75.4589 51.9972 77.8593 53.3894 81.076L54.5897 80.4038Z"
            fill="#27BDA0"
        />
        <path
            d="M56.7494 79.1073C55.4052 75.8907 53.9649 73.4902 52.9567 72.002L52.0445 72.5301C53.0527 74.0183 54.493 76.4188 55.8373 79.6354L56.7494 79.1073Z"
            fill="#27BDA0"
        />
        <path
            d="M60.8303 76.7551C59.438 72.8664 56.6535 69.8418 56.6535 69.8418L54.205 71.2821C55.2612 72.8184 56.6535 75.2188 57.9977 78.3875L60.8303 76.7551Z"
            fill="#27BDA0"
        />
        <path
            d="M78.4022 39.5479V47.9495L116.282 69.0735V60.7199L78.4022 39.5479Z"
            fill="#27BDA0"
        />
        <path
            d="M107.352 88.4212L80.5624 73.5863C80.4184 73.4903 80.2264 73.4903 80.0823 73.5863L39.4185 97.3029C39.2745 97.3989 39.1784 97.5429 39.1784 97.735C39.1784 97.927 39.2745 98.071 39.4185 98.167L66.2077 113.002C66.3037 113.05 66.3517 113.05 66.4477 113.05C66.5437 113.05 66.5917 113.05 66.6878 113.002L107.352 89.2373C107.496 89.1413 107.592 88.9973 107.592 88.8052C107.64 88.6612 107.544 88.5172 107.352 88.4212ZM66.4957 112.042L40.6667 97.735L80.3224 74.5465L106.151 88.8532L66.4957 112.042Z"
            fill="#27BDA0"
        />
        <path
            d="M70.4808 94.8546C70.6248 97.3031 74.3215 99.2234 78.7384 99.1274C83.1552 98.9834 86.5639 96.919 86.4199 94.4225C86.2758 91.974 82.5791 90.0537 78.1623 90.1497C73.7454 90.2937 70.2888 92.4061 70.4808 94.8546Z"
            fill="#27BDA0"
        />
        <path
            d="M79.6978 96.1987H77.3934C77.1054 96.1987 76.9133 96.0067 76.9133 95.7186C76.9133 95.4305 77.1054 95.2385 77.3934 95.2385H79.2178V92.454C79.2178 92.1659 79.4098 91.9739 79.6978 91.9739C79.9859 91.9739 80.1779 92.1659 80.1779 92.454V95.7186C80.1779 96.0067 79.9379 96.1987 79.6978 96.1987Z"
            fill="white"
        />
        <path
            d="M220.941 18.7117C219.981 17.6075 218.925 16.8874 217.725 16.5993H217.677C217.293 16.5033 216.909 16.4553 216.525 16.4553H216.477L214.94 16.5993C214.892 16.5993 214.892 16.5993 214.892 16.5993C213.644 16.6954 212.108 16.8874 210.283 17.0794C205.242 17.6555 198.377 18.4237 192.088 18.0396C184.502 17.5595 174.132 13.8148 165.011 10.5022L163.474 9.92605C154.689 6.75744 151.04 8.72582 148.64 10.0221C148.399 10.1661 148.207 10.2621 148.015 10.3581C145.855 11.4623 144.655 11.6544 141.438 10.5982C137.981 9.49396 134.237 11.2703 132.028 12.3745L131.74 12.5185C130.396 13.1427 125.643 14.679 120.602 16.2633L118.538 16.9354C116.137 17.7035 113.641 18.5197 111.528 19.2398C105.671 21.2082 104.903 22.1204 102.983 24.5209C102.503 25.097 102.023 25.7211 101.35 26.4893C99.382 28.6977 97.2696 31.0021 95.7333 32.6344C94.9171 33.4986 94.437 34.0267 94.101 34.4108L68.32 20.056C67.5998 19.6239 66.6877 19.6719 65.9675 20.104C65.2474 20.5361 64.8153 21.3042 64.8153 22.1204V57.4552C63.327 57.1192 61.7427 57.3112 60.3505 58.0793L58.19 59.3276C54.3013 54.3346 49.9324 50.8299 43.6912 47.7574C41.9629 46.8932 40.8107 46.7972 39.7065 47.4213C38.9863 47.8054 38.8423 48.4295 38.7943 48.7655C38.7463 49.0536 38.7463 49.0536 38.5542 49.1496C38.3622 49.2456 38.2662 49.2456 37.9781 49.1496C37.5941 49.0536 37.0179 48.9096 36.3458 49.2937C35.6737 49.6777 35.4817 50.2538 35.3376 50.6379C35.2416 50.926 35.1936 51.022 35.0496 51.118C34.8575 51.214 34.7615 51.214 34.4735 51.118C34.0894 51.022 33.5133 50.878 32.8411 51.262C32.169 51.6461 31.977 52.2222 31.8329 52.6063C31.7369 52.8943 31.6889 52.9904 31.5449 53.0864C31.3528 53.1824 31.2568 53.1824 30.9688 53.0864C30.5847 52.9904 30.0086 52.8463 29.3365 53.2304C28.6643 53.6145 28.4723 54.1906 28.3283 54.5747C28.2322 54.8627 28.1842 54.9587 28.0402 55.0548C27.8482 55.1508 27.7522 55.1508 27.4641 55.0548C27.08 54.9587 26.5039 54.8147 25.8318 55.1988C25.1597 55.5829 24.9676 56.159 24.8716 56.5431C24.7756 56.8311 24.7276 56.9271 24.5835 57.0231C24.3915 57.1192 24.2955 57.1192 24.0074 57.0231C23.6234 56.9271 23.0472 56.7831 22.3751 57.1672C21.703 57.5512 21.511 58.1274 21.4149 58.5114C21.3189 58.7995 21.2709 58.8955 21.1269 58.9915C20.9348 59.0875 20.8388 59.0875 20.5508 58.9915C20.1667 58.8955 19.5906 58.7515 18.9184 59.1356C18.2463 59.5196 18.0543 60.0957 17.9583 60.4798C17.8622 60.7679 17.8142 60.8639 17.6702 60.9599C17.4782 61.0559 17.3822 61.0559 17.0941 60.9599C16.71 60.8639 16.1339 60.7199 15.4618 61.1039C14.7896 61.488 14.5976 62.0641 14.5016 62.4482C14.4056 62.7362 14.3576 62.8323 14.2135 62.9283C13.9735 63.0723 13.7815 63.0723 13.4934 63.1203C13.0613 63.1683 12.2932 63.2163 12.0051 64.1765C11.9091 64.4646 12.0531 64.8007 12.2932 64.9447C18.2943 69.1215 23.1913 72.8182 27.2721 77.091L7.58826 88.2292C7.58826 88.2292 7.58826 88.2292 7.54025 88.2292C7.20418 88.3732 6.82011 88.6133 6.43603 88.8533L6.14798 88.9973C6.05196 89.0453 5.95595 89.1414 5.90794 89.1894C4.85173 90.0055 3.84353 91.0617 3.31543 92.31C2.21122 94.8545 2.83534 98.4072 4.89974 101.912C4.46765 107.193 8.3084 111.418 10.8529 112.858L106.103 165.764C107.88 166.724 109.56 167.252 111 167.252C112.585 167.252 113.929 166.676 114.937 165.572C115.273 165.62 115.609 165.62 115.993 165.62C117.578 165.62 119.258 165.188 120.746 164.42H120.794C131.356 158.467 170.052 137.487 172.452 136.19C172.884 135.95 173.268 135.758 173.652 135.566C175.525 134.606 176.917 133.886 177.589 131.87C178.117 130.237 178.261 128.365 177.973 126.493C178.693 122.124 176.869 116.171 171.108 112.57L129.868 89.4774V77.7151C130.396 77.8112 130.972 77.9072 131.5 77.9072C133.277 77.9072 134.909 77.2351 136.061 75.9868C137.789 74.0664 137.981 71.1859 136.733 67.9693L137.405 67.7772C137.933 68.8334 138.462 69.9376 138.99 71.0419C141.006 75.2667 142.734 78.9154 144.703 79.5875C145.135 79.7315 145.663 79.8276 146.239 79.8276C147.631 79.8276 149.264 79.3475 150.512 78.2913C151.568 77.3791 152.72 75.6507 152.192 72.8182C151.52 69.2175 150.464 66.625 149.84 65.2807C151.184 65.2327 152.576 65.3288 154.161 65.5688C155.025 69.9856 156.705 74.8826 161.698 75.4587C161.986 75.5067 162.226 75.5067 162.466 75.5067C164.291 75.5067 165.347 74.6906 165.923 74.0184C167.027 72.6262 167.315 70.4657 166.739 68.0173C176.965 69.0255 184.935 64.2725 189.976 61.296C190.6 60.9599 191.128 60.6238 191.656 60.2878C196.217 57.6953 198.713 57.5993 202.89 57.4072C203.514 57.3592 204.234 57.3592 204.954 57.3112C209.995 57.0231 213.548 56.7831 214.028 56.7831H214.076C219.357 56.495 224.11 47.6613 224.926 36.7152C225.358 28.9857 223.87 22.1684 220.941 18.7117ZM66.3036 22.0724C66.3036 21.7363 66.4476 21.4483 66.7357 21.3042C67.0237 21.1602 67.3598 21.1122 67.6479 21.3042L93.8609 35.9471L93.9089 35.9951L114.985 47.7574L127.323 54.6227C127.131 54.6707 126.939 54.7187 126.747 54.7667C126.651 54.7667 126.603 54.8147 126.507 54.8147C126.171 54.8627 125.883 54.9587 125.547 55.0068C125.451 55.0068 125.403 55.0548 125.307 55.0548C125.067 55.1028 124.827 55.1508 124.587 55.1988C124.491 55.1988 124.395 55.2468 124.251 55.2468C124.059 55.2948 123.867 55.3428 123.675 55.3428C123.579 55.3428 123.435 55.3908 123.339 55.3908C123.147 55.4388 122.955 55.4388 122.811 55.4868C122.715 55.4868 122.57 55.5349 122.474 55.5349C122.282 55.5829 122.09 55.5829 121.898 55.6309C121.802 55.6309 121.706 55.6789 121.61 55.6789C121.322 55.7269 121.082 55.7749 120.842 55.8229C117.818 56.303 115.321 58.8475 115.033 61.7761C114.793 64.5606 116.665 66.9131 120.074 68.0653C123.675 69.2655 126.123 69.7936 128.284 69.7936V92.598L66.3036 57.8873V22.0724ZM132.124 37.0993C132.172 37.0993 132.22 37.0993 132.268 37.0993C131.452 39.3557 129.004 46.2211 128.572 47.9494C127.899 50.7339 127.948 51.118 129.436 54.0946C129.34 54.1426 129.196 54.1426 129.1 54.1906C128.86 53.8545 128.524 53.6145 128.14 53.3744L116.089 46.6531C116.569 42.7164 118.73 35.419 119.258 33.9787C119.498 33.8827 119.738 33.7386 119.978 33.6426C122.522 35.0829 126.891 37.0993 132.124 37.0993ZM137.165 42.4763C138.558 43.7726 139.758 44.6367 140.622 45.2609C141.198 45.6449 141.63 45.981 141.87 46.2211C141.966 46.3171 142.11 46.5091 142.062 46.8932C141.918 48.1414 140.334 50.0138 138.462 51.166C138.029 51.4541 137.309 51.7421 136.397 52.0782C136.541 50.0138 136.829 45.6449 137.165 42.4763ZM134.957 52.5583C133.805 52.9424 132.412 53.3264 130.876 53.7105C129.34 50.7339 129.388 50.6379 129.964 48.2855C130.348 46.7972 132.46 40.844 133.421 38.1555C134.285 39.3077 135.101 40.3159 135.917 41.1801C135.437 44.5887 135.053 50.5419 134.957 52.5583ZM114.745 45.885L106.055 41.0361C106.823 40.1239 108.024 38.5396 108.504 37.4834C109.8 37.1473 114.121 35.9951 117.481 34.6988C116.713 37.3393 115.273 42.4763 114.745 45.885ZM170.148 113.578C175.381 116.843 177.013 122.22 176.293 126.108V126.157C176.293 126.205 176.293 126.205 176.293 126.253C176.293 126.301 176.293 126.301 176.293 126.349V126.397C176.581 128.125 176.485 129.757 176.005 131.197C175.525 132.638 174.613 133.118 172.788 134.03C172.404 134.222 171.972 134.414 171.54 134.654C169.187 135.95 131.164 156.546 120.17 162.74C118.49 163.748 116.377 164.18 114.601 163.844H114.553H114.505C114.457 163.844 114.457 163.844 114.409 163.844H114.361C114.313 163.844 114.313 163.844 114.265 163.844H114.217C114.217 163.844 114.169 163.844 114.169 163.892C114.169 163.892 114.121 163.892 114.121 163.94L114.073 163.988L114.025 164.036L113.977 164.084C113.977 164.084 113.977 164.084 113.929 164.132C111.912 166.82 108.168 165.14 106.631 164.276L11.333 111.37C9.07655 110.121 5.61988 106.377 6.09997 101.672V101.624C6.09997 101.48 6.09997 101.288 6.00395 101.144C4.51567 98.6952 3.31544 95.1905 4.37164 92.694C4.85173 91.5898 5.85993 90.5816 6.86812 89.8615L28.4243 77.6671C28.6643 77.5231 28.8084 77.2831 28.8084 77.043V76.995V76.947C28.8084 76.803 28.7604 76.6589 28.6163 76.5149C24.5355 72.1461 19.7346 68.4013 13.8295 64.2725C14.0695 64.2245 14.3096 64.1285 14.5976 63.9845C15.2697 63.6004 15.4618 63.0243 15.5578 62.6402C15.6538 62.3522 15.7018 62.2562 15.8459 62.1601C16.0379 62.0641 16.1339 62.0641 16.422 62.1601C16.806 62.2562 17.3822 62.4002 18.0543 62.0161C18.7264 61.632 18.9185 61.0559 19.0145 60.6719C19.1105 60.3838 19.1585 60.2878 19.3025 60.1918C19.4946 60.0957 19.5906 60.0957 19.8786 60.1918C20.2627 60.2878 20.8388 60.4318 21.511 60.0477C22.1831 59.6637 22.3751 59.0875 22.5191 58.7035C22.6152 58.4154 22.6632 58.3194 22.8072 58.2234C22.9992 58.1274 23.0953 58.1274 23.3833 58.2234C23.7674 58.3194 24.3435 58.4634 25.0156 58.0793C25.6878 57.6953 25.8798 57.1192 25.9758 56.7351C26.0718 56.447 26.1198 56.351 26.2639 56.255C26.4559 56.159 26.5519 56.159 26.84 56.255C27.2241 56.351 27.8002 56.495 28.4723 56.111C29.1444 55.7269 29.3365 55.1508 29.4805 54.7667C29.5765 54.4787 29.6245 54.3826 29.7685 54.2866C29.9606 54.1906 30.0566 54.1906 30.3447 54.2866C30.7287 54.3826 31.3048 54.5267 31.977 54.1426C32.6491 53.7585 32.8411 53.1824 32.9852 52.7983C33.0812 52.5103 33.1292 52.4143 33.2732 52.3182C33.4653 52.2222 33.5613 52.2222 33.8493 52.3182C34.2334 52.4143 34.8095 52.5583 35.4816 52.1742C36.1538 51.7901 36.3458 51.214 36.4898 50.8299C36.5859 50.5419 36.6339 50.4459 36.7779 50.3499C36.9699 50.2538 37.066 50.2538 37.354 50.3499C37.7381 50.4459 38.3142 50.5899 38.9863 50.2058C39.7065 49.8218 39.8505 49.1976 39.8985 48.8616C39.9465 48.5735 39.9465 48.5735 40.1386 48.4775C40.7147 48.1414 41.3388 48.0934 42.8271 48.8616C49.0683 51.9822 53.3891 55.4868 57.2299 60.5278L57.2779 60.5758L57.3259 60.6238C57.4219 60.7199 57.5179 60.7679 57.6139 60.7679H57.6619C57.7099 60.7679 57.7579 60.7679 57.806 60.7679C57.902 60.7679 58.046 60.7199 58.142 60.6719L60.8786 59.1356C62.3668 58.3194 64.0952 58.3194 65.5835 59.1356L128.764 94.3744C128.86 94.4224 129.004 94.4704 129.1 94.4704C129.244 94.4704 129.34 94.4224 129.484 94.3744C129.724 94.2303 129.82 93.9903 129.82 93.7502V91.1577L170.148 113.578ZM134.909 74.9786C133.757 76.2749 131.836 76.707 129.82 76.1788V69.6016C131.404 69.4575 132.892 68.9775 134.765 68.4494C134.909 68.4013 135.101 68.3533 135.245 68.3053C136.397 71.0899 136.301 73.4903 134.909 74.9786ZM150.704 73.0102C151.04 74.7866 150.608 76.1788 149.504 77.139C148.207 78.2432 146.191 78.5793 145.087 78.1952C143.695 77.7151 141.774 73.6824 140.238 70.3697C139.758 69.3615 139.278 68.3053 138.75 67.2971C142.686 66.1929 145.423 65.4728 148.207 65.2327C148.688 66.2409 149.984 68.9775 150.704 73.0102ZM164.771 73.0102C164.147 73.7784 163.138 74.1144 161.794 73.9704C158.673 73.6344 156.753 71.0899 155.649 65.7608C157.617 66.0969 159.874 66.577 162.658 67.2491C163.522 67.4412 164.339 67.6332 165.155 67.7292C165.779 69.8896 165.683 71.906 164.771 73.0102ZM223.39 36.4752C222.67 46.5571 218.445 54.9587 213.932 55.1988C213.932 55.1988 210.187 55.4388 204.81 55.7269C204.09 55.7749 203.418 55.8229 202.746 55.8229C198.521 56.0149 195.737 56.159 190.888 58.8955C190.36 59.1836 189.783 59.5196 189.159 59.9037C183.686 63.1203 174.565 68.5454 162.946 65.7608C159.682 64.9927 157.089 64.4166 154.881 64.1285C154.833 64.1285 154.737 64.0805 154.689 64.0805C152.384 63.7444 150.512 63.6484 148.64 63.7924C148.592 63.7924 148.495 63.7924 148.447 63.7924C145.135 64.0325 141.966 64.8967 136.973 66.2889L136.013 66.577C135.389 66.769 134.861 66.9131 134.333 67.0571C132.268 67.6812 130.732 68.1133 129.052 68.2093C127.755 68.3053 126.363 68.1613 124.587 67.7292C124.011 67.5852 123.387 67.4412 122.763 67.2491C122.09 67.0571 121.37 66.817 120.602 66.577C117.866 65.6648 116.377 63.9365 116.569 61.7761C116.569 61.632 116.617 61.488 116.617 61.344C117.001 59.2796 118.922 57.4552 121.13 57.1192C121.418 57.0712 121.658 57.0231 121.994 56.9751C124.011 56.6391 126.507 56.159 128.956 55.5829C131.932 54.9107 137.261 53.5665 139.23 52.3182C141.198 51.118 143.262 48.9096 143.503 46.9892C143.599 46.2691 143.407 45.5969 142.926 45.1168C142.59 44.7808 142.11 44.4447 141.486 44.0126C139.47 42.5724 136.061 40.1239 132.604 34.2187C132.412 33.8827 131.98 33.7386 131.596 33.9787C131.26 34.1707 131.116 34.6028 131.356 34.9869C131.5 35.1789 131.596 35.419 131.74 35.611C126.891 35.515 122.811 33.5946 120.554 32.2504C120.506 32.2024 120.41 32.1543 120.314 32.1063C119.258 31.4342 118.634 30.9541 118.586 30.9541C118.298 30.7141 117.818 30.7621 117.578 31.0501C117.337 31.3382 117.385 31.8183 117.674 32.0583C117.722 32.1063 118.01 32.3464 118.538 32.6824C114.697 34.4108 107.88 36.1391 107.784 36.1391C107.544 36.1871 107.304 36.4272 107.256 36.6672C107.111 37.3393 105.815 39.0197 104.759 40.2679L95.3492 35.0349C95.7333 34.6508 96.2134 34.1227 96.7415 33.5466C98.2778 31.8663 100.39 29.6098 102.359 27.3534C103.079 26.5853 103.607 25.9131 104.039 25.337C105.911 23.0326 106.439 22.3604 111.912 20.5361C114.025 19.816 116.521 18.9998 118.874 18.2316L120.938 17.5595C126.219 15.8792 130.828 14.3909 132.22 13.7188L132.508 13.5747C134.669 12.5185 137.981 10.9822 140.862 11.8944C144.223 12.9506 145.855 12.8546 148.495 11.5584C148.736 11.4623 148.928 11.3183 149.168 11.1743C151.472 9.92604 154.641 8.19771 162.802 11.1743L164.339 11.7504C173.556 15.111 184.022 18.9038 191.8 19.3839C198.233 19.768 205.194 18.9998 210.283 18.4237C213.548 18.0396 216.141 17.7516 217.293 17.8956C218.157 18.1356 218.973 18.7117 219.741 19.5759C222.526 22.7445 223.918 29.3698 223.39 36.4752Z"
            fill="#3F3F79"
        />
        <path
            d="M198.665 64.6084C198.425 64.4644 198.137 64.5604 198.041 64.8005C196.552 67.681 190.359 77.1389 173.652 78.1471C173.364 78.1471 173.172 78.3871 173.22 78.6752C173.22 78.9152 173.46 79.1073 173.7 79.1073C173.7 79.1073 173.7 79.1073 173.748 79.1073C190.935 78.051 197.369 68.2091 198.905 65.2326C198.953 64.9925 198.905 64.7045 198.665 64.6084Z"
            fill="#27BDA0"
        />
        <path
            d="M120.073 7.04517C112.344 8.29341 101.349 11.8461 92.8518 21.784C92.6598 21.9761 92.7078 22.3121 92.8998 22.4561C92.9959 22.5522 93.0919 22.5522 93.1879 22.5522C93.3319 22.5522 93.4759 22.5042 93.572 22.3601C101.878 12.6622 112.632 9.15757 120.217 7.95734C120.457 7.90933 120.649 7.66928 120.601 7.42923C120.601 7.18919 120.361 7.04517 120.073 7.04517Z"
            fill="#27BDA0"
        />
        <path
            d="M163.185 88.421L160.64 87.0288C159.968 86.6447 159.392 86.1166 159.056 85.4444L157.664 82.9C157.232 82.0838 156.08 82.0838 155.599 82.9L154.207 85.4444C153.823 86.1166 153.295 86.6927 152.623 87.0288L150.078 88.421C149.262 88.8531 149.262 90.0053 150.078 90.4854L152.623 91.8777C153.295 92.2618 153.871 92.7899 154.207 93.462L155.599 96.0065C156.032 96.8226 157.184 96.8226 157.664 96.0065L159.056 93.462C159.44 92.7899 159.968 92.2138 160.64 91.8777L163.185 90.4854C163.953 90.0053 163.953 88.8531 163.185 88.421Z"
            fill="#27BDA0"
        />
        <path
            d="M52.5716 33.8826L50.6993 32.8744C50.2192 32.5864 49.7871 32.2023 49.499 31.6742L48.4908 29.8018C48.1548 29.2257 47.2906 29.2257 46.9545 29.8018L45.9464 31.6742C45.6583 32.1543 45.2742 32.5864 44.7461 32.8744L42.8738 33.8826C42.2977 34.2187 42.2977 35.0829 42.8738 35.4189L44.7461 36.4271C45.2262 36.7152 45.6583 37.0992 45.9464 37.6273L46.9545 39.4997C47.2906 40.0758 48.1548 40.0758 48.4908 39.4997L49.499 37.6273C49.7871 37.1473 50.1712 36.7152 50.6993 36.4271L52.5716 35.4189C53.1477 35.0829 53.1477 34.2187 52.5716 33.8826Z"
            fill="#27BDA0"
        />
        <path
            d="M10.516 76.5627L9.3638 75.9386C9.07575 75.7946 8.78769 75.5065 8.64367 75.2185L8.01954 74.0663C7.82751 73.6822 7.29941 73.6822 7.10737 74.0663L6.48325 75.2185C6.33922 75.5065 6.05116 75.7946 5.76311 75.9386L4.61089 76.5627C4.22681 76.7548 4.22681 77.2829 4.61089 77.4749L5.76311 78.099C6.05116 78.2431 6.33922 78.5311 6.48325 78.8192L7.10737 79.9714C7.29941 80.3555 7.82751 80.3555 8.01954 79.9714L8.64367 78.8192C8.78769 78.5311 9.07575 78.2431 9.3638 78.099L10.516 77.4749C10.9001 77.2829 10.9001 76.7548 10.516 76.5627Z"
            fill="#27BDA0"
        />
        <path
            d="M59.1971 45.8369L58.429 45.4048C58.2369 45.3088 58.0449 45.1168 57.9489 44.9247L57.5168 44.1566C57.3728 43.9166 57.0367 43.9166 56.8927 44.1566L56.4606 44.9247C56.3646 45.1168 56.1725 45.3088 55.9805 45.4048L55.2124 45.8369C54.9723 45.9809 54.9723 46.317 55.2124 46.461L55.9805 46.8931C56.1725 46.9892 56.3646 47.1812 56.4606 47.3732L56.8927 48.1414C57.0367 48.3814 57.3728 48.3814 57.5168 48.1414L57.9489 47.3732C58.0449 47.1812 58.2369 46.9892 58.429 46.8931L59.1971 46.461C59.4372 46.317 59.4372 45.9329 59.1971 45.8369Z"
            fill="#27BDA0"
        />
        <path
            d="M132.604 1.86036L131.835 1.42828C131.643 1.33226 131.451 1.14022 131.355 0.948182L130.923 0.180035C130.779 -0.0600116 130.443 -0.0600116 130.299 0.180035L129.867 0.948182C129.771 1.14022 129.579 1.33226 129.387 1.42828L128.619 1.86036C128.379 2.00439 128.379 2.34045 128.619 2.48448L129.387 2.91656C129.579 3.01258 129.771 3.20462 129.867 3.39665L130.299 4.16481C130.443 4.40485 130.779 4.40485 130.923 4.16481L131.355 3.39665C131.451 3.20462 131.643 3.01258 131.835 2.91656L132.604 2.48448C132.844 2.34045 132.844 1.95638 132.604 1.86036Z"
            fill="#27BDA0"
        />
</svg>